<svg xmlns="http://www.w3.org/2000/svg" width="50" height="50" viewBox="0 0 50 50"><g id="surface1"><path d="M 3.089844 0 L 0.0546875 50 L 50.113281 46.972656 L 50.113281 3.035156 Z M 3.089844 0" fill-rule="evenodd" fill="#fe0"></path><path d="M24.617188 22.917969L24.617188 26.421875 16.265625 26.421875 16.265625 33.304688 12.234375 33.304688 12.234375 15.898438 25.132812 15.898438 25.132812 19.410156 16.257812 19.410156 16.257812 22.925781 24.617188 22.925781zM34.742188 15.410156C38.09375 15.410156 40.066406 16.175781 41.769531 17.632812L39.773438 20.375C38.695312 19.664062 37.289062 18.917969 34.742188 18.917969 31.113281 18.917969 29.5 21.390625 29.5 24.601562 29.5 27.804688 31.113281 30.285156 34.742188 30.285156 37.28125 30.285156 38.726562 29.574219 39.773438 28.828125L41.769531 31.570312C40.066406 33.027344 38.09375 33.792969 34.742188 33.792969 28.203125 33.792969 25.34375 29.464844 25.34375 24.601562 25.34375 19.738281 28.203125 15.410156 34.742188 15.410156zM34.742188 15.410156" fill="#231f20"></path></g></svg>
